<?xml version="1.0" encoding="UTF-8"?>
<!DOCTYPE svg PUBLIC "-//W3C//DTD SVG 1.1//EN" "http://www.w3.org/Graphics/SVG/1.1/DTD/svg11.dtd">
<!-- Creator: CorelDRAW 2021 (64-Bit) -->
<svg xmlns="http://www.w3.org/2000/svg" xml:space="preserve" width="154.625mm" height="218.401mm" version="1.1" style="shape-rendering:geometricPrecision; text-rendering:geometricPrecision; image-rendering:optimizeQuality; fill-rule:evenodd; clip-rule:evenodd"
viewBox="0 0 2548.61 3599.81"
 xmlns:xlink="http://www.w3.org/1999/xlink"
 xmlns:xodm="http://www.corel.com/coreldraw/odm/2003">
 <defs>
  <style type="text/css">
   <![CDATA[
    .str0 {stroke:#FEFEFE;stroke-width:34.89;stroke-linecap:round;stroke-linejoin:round;stroke-miterlimit:22.9256}
    .fil1 {fill:none}
    .fil0 {fill:#FEFEFE;fill-rule:nonzero}
   ]]>
  </style>
 </defs>
 <g id="Layer_x0020_1">
  <metadata id="CorelCorpID_0Corel-Layer"/>
  <path class="fil0" d="M1274.31 0c350.45,0 669.03,143.36 899.99,374.31 230.96,230.96 374.31,549.54 374.31,899.99l0 1933.33 -34.89 0 0 -1933.33c0,-340.82 -139.44,-650.67 -364.09,-875.32 -224.65,-224.65 -534.5,-364.09 -875.32,-364.09 -340.82,0 -650.67,139.44 -875.32,364.09 -224.65,224.65 -364.09,534.5 -364.09,875.32l0 1933.33 -34.89 0 0 -1933.33c0,-350.45 143.36,-669.03 374.31,-899.99 230.96,-230.96 549.54,-374.31 899.99,-374.31zm1274.31 3564.92l0 17.45c0,9.63 -7.81,17.45 -17.45,17.45l-2513.72 0c-9.63,0 -17.45,-7.81 -17.45,-17.45l0 -17.45 34.89 0 2478.83 0 34.89 0z"/>
  <path class="fil0" d="M1120.42 741.88l-401.42 400.4 -7.16 6.54c-152.35,152.76 -253.78,229.03 -304.49,229.03 -30.06,0 -53.17,-8.38 -69.73,-25.15 -16.56,-16.77 -24.95,-40.08 -24.95,-70.14 0,-30.06 9.82,-55.42 29.45,-76.07 19.43,-20.86 43.35,-31.29 71.16,-31.29 18.4,0 33.13,5.11 43.76,15.13 10.84,9.82 16.36,23.52 16.36,40.69 0,15.54 -4.7,28.22 -13.91,38.04 -9.2,9.82 -21.27,14.72 -36.4,14.72 -10.84,0 -23.31,-3.48 -37.22,-10.63 -13.9,-6.95 -22.7,-10.43 -26.38,-10.43 -4.7,0 -9,2.86 -12.27,8.79 -3.48,5.73 -5.11,13.09 -5.11,21.88 0,17.18 5.93,31.08 17.59,41.51 11.86,10.63 27.4,15.95 46.62,15.95 19.43,0 39.67,-5.93 60.33,-17.59 20.86,-11.86 44.37,-30.88 70.75,-57.26l766.85 -760.72c2.86,-2.66 6.54,-6.34 10.84,-10.63 21.68,-20.65 37.22,-31.08 46.83,-31.08 3.07,0 5.32,0.41 6.54,1.23 1.23,0.82 1.84,2.05 1.84,3.48 0,5.32 -2.04,11.45 -5.73,18.81 -3.88,7.36 -10.22,17.18 -19.02,29.04l-563.18 748.04c-0.41,0.41 -1.02,1.02 -1.84,1.84 -9,11.86 -13.7,20.86 -13.7,26.99 0,2.25 0.41,4.09 1.23,4.91 0.82,1.02 2.45,1.64 4.7,1.64 4.5,0 8.59,-1.23 12.68,-3.27 3.88,-2.25 9.2,-6.13 15.54,-11.86l783.21 -763.58c1.43,-1.43 4.09,-4.09 7.77,-7.77 21.47,-21.47 37.63,-32.31 48.47,-32.31 3.27,0 5.32,0.2 6.54,0.82 1.23,0.61 1.84,2.04 1.84,3.88 0,5.32 -1.64,11.25 -5.11,18 -3.27,6.95 -9.82,16.56 -19.43,28.83l-430.87 549.68c-44.78,57.05 -80.57,107.36 -107.56,150.71 -26.99,43.35 -40.29,71.57 -40.29,84.87 0,6.34 2.66,11.86 8.38,16.36 5.52,4.7 12.47,6.95 20.86,6.95 18,0 45.4,-9.2 82.41,-27.81 37.01,-18.61 76.28,-43.35 117.79,-74.03 15.54,-11.66 32.72,-25.56 51.74,-41.72 19.02,-16.15 30.27,-24.33 33.95,-24.33 2.66,0 5.11,1.02 6.75,3.07 1.84,2.05 2.86,4.5 2.86,7.77 0,7.57 -21.68,28.63 -64.82,62.98l-7.77 5.93c-49.08,38.85 -93.66,68.1 -133.94,87.93 -40.08,19.84 -75.05,29.65 -105.11,29.65 -24.74,0 -44.38,-6.54 -59.1,-19.43 -14.52,-13.09 -21.88,-30.47 -21.88,-52.55 0,-22.29 9.61,-49.49 28.83,-81.18 19.22,-31.7 57.46,-81.18 115.13,-148.46l259.91 -306.74 -464.82 459.09c-58.08,56.65 -101.43,95.91 -130.06,117.18 -28.83,21.47 -51.74,32.1 -68.91,32.1 -13.29,0 -23.11,-3.68 -29.65,-11.04 -6.54,-7.36 -10.02,-18.4 -10.02,-32.72 0,-20.04 7.77,-43.76 22.9,-71.16 15.13,-27.2 39.06,-60.53 71.78,-99.79l347.64 -423.71z"/>
  <path class="fil0" d="M1720.83 2781.65c-51.12,44.38 -98.16,77.91 -141.1,100.61 -42.94,22.7 -80.57,34.15 -112.88,34.15 -26.79,0 -48.26,-8.79 -64.83,-26.38 -16.56,-17.59 -24.95,-40.7 -24.95,-69.53 0,-29.04 9,-58.69 27.2,-88.55 18.2,-30.06 60.53,-78.12 127.2,-144.37l7.77 -7.36c100.41,-98.98 150.71,-168.5 150.71,-208.58 0,-38.65 -18,-70.14 -53.99,-94.07 -35.79,-23.93 -83.43,-35.99 -142.33,-35.99 -55.62,0 -111.24,11.04 -167.07,32.92 -56.03,22.08 -107.56,53.17 -154.6,93.66 -33.95,29.45 -60.33,60.94 -79.35,94.27 -19.02,33.33 -28.42,65.23 -28.42,95.7 0,31.9 9.2,57.05 27.81,75.46 18.61,18.4 43.76,27.61 75.25,27.61 38.65,0 84.25,-18.41 136.6,-55.21 52.35,-36.6 100,-84.66 143.15,-143.76 15.13,-20.45 27.81,-43.35 38.04,-69.12 10.02,-25.77 16.97,-38.65 20.65,-38.65 2.25,0.2 4.3,2.04 5.52,5.32 1.43,3.27 2.25,7.16 2.25,12.07 0,18.61 -7.16,44.78 -21.68,78.53 -14.32,33.54 -32.92,65.44 -55.62,95.7 -35.58,48.05 -74.85,83.84 -117.79,107.77 -42.94,23.72 -89.57,35.58 -139.87,35.58 -41.92,0 -75.87,-12.07 -102.04,-36.2 -26.17,-24.33 -39.26,-56.03 -39.26,-95.09 0,-32.72 9.61,-66.67 29.04,-101.63 19.43,-34.97 47.03,-68.71 83.02,-101.02 49.9,-44.78 104.7,-78.93 164.21,-102.86 59.51,-23.72 120.04,-35.58 181.39,-35.58 71.57,0 128.42,16.36 170.75,49.08 42.33,32.92 63.6,76.69 63.6,131.29 0,34.76 -11.04,71.16 -32.92,108.79 -22.08,37.83 -59.3,83.84 -111.65,138.24 -12.47,12.47 -29.45,29.45 -51.53,50.92 -74.64,72.6 -111.86,124.33 -111.86,155.21 0,13.5 3.88,23.52 11.65,30.27 7.77,6.54 19.84,9.82 36.2,9.82 43.56,0 106.13,-31.9 187.93,-95.91 81.59,-63.8 174.84,-154.19 279.34,-270.75 67.48,-75.46 128.01,-136.4 181.59,-182.61 53.58,-46.01 88.75,-69.12 105.93,-69.12 3.27,0 6.13,1.02 8.38,3.07 2.45,1.84 3.68,4.09 3.68,6.55 0,7.16 -9.2,16.15 -27.61,26.99 -12.27,7.16 -21.88,13.29 -28.63,18.4 -35.58,26.79 -72.8,62.57 -111.45,107.56 -38.85,44.99 -83.23,103.88 -133.13,177.09 -10.43,15.54 -25.77,38.85 -46.01,69.94 -95.91,146.21 -181.59,248.87 -257.05,307.97 -57.67,44.78 -118.2,78.73 -181.59,101.84 -63.6,23.11 -128.42,34.56 -194.88,34.56 -68.92,0 -124.13,-12.27 -165.23,-36.6 -41.1,-24.33 -61.76,-56.85 -61.76,-97.34 0,-24.75 7.77,-45.6 23.31,-62.58 15.75,-16.97 34.97,-25.56 57.67,-25.56 18,0 31.9,4.29 41.72,13.09 9.82,8.79 14.72,21.27 14.72,37.22 0,14.32 -4.3,25.77 -12.68,34.15 -8.38,8.38 -19.63,12.47 -34.15,12.47 -9.2,0 -19.22,-1.84 -30.27,-5.72 -11.04,-3.68 -17.59,-5.52 -20.04,-5.52 -2.45,0 -4.3,1.43 -5.93,4.7 -1.64,3.27 -2.45,7.36 -2.45,12.68 0,24.95 17.18,46.63 51.53,65.23 34.35,18.61 76.89,28.02 127.6,28.02 86.3,0 169.32,-26.38 248.87,-79.14 79.75,-52.76 157.05,-132.51 232.3,-239.67z"/>
  <line class="fil1 str0" x1="308.38" y1="2539.88" x2="2240.24" y2= "1059.92" />
 </g>
</svg>
